<svg width="981" height="1018" viewBox="0 0 981 1018" fill="none" xmlns="http://www.w3.org/2000/svg">
<g filter="url(#filter0_d_125_8)">
<path d="M327.552 736.068C313.33 753.189 82.9631 930.969 308.352 954.108C424.2 966 519.547 959.406 633.2 934.5C819.749 893.621 926.758 801.25 936.7 755.5C952.7 681.879 781.236 637.192 737.858 647.037C694.481 656.882 484.35 606.802 327.552 736.068Z" fill="#3B3B3B"/>
</g>
<g filter="url(#filter1_d_125_8)">
<path d="M47.7002 420C47.7002 420 97.292 798.476 242.317 844.444C387.341 890.412 763.132 802.333 834.956 707.182C906.78 612.031 825.2 251 825.2 251L47.7002 420Z" fill="url(#paint0_linear_125_8)"/>
</g>
<g filter="url(#filter2_d_125_8)">
<path d="M71.335 391.595C199.941 334.206 760.007 181.098 815.958 232.651C871.91 284.205 652.675 525.844 510.407 586.606C368.139 647.367 -57.2713 448.984 71.335 391.595Z" fill="white"/>
<path d="M71.335 391.595C199.941 334.206 760.007 181.098 815.958 232.651C871.91 284.205 652.675 525.844 510.407 586.606C368.139 647.367 -57.2713 448.984 71.335 391.595Z" stroke="white"/>
</g>
<path d="M66.0752 267.118C46.0752 288.618 76.0752 284.618 76.0752 284.618L708.075 149.618C708.075 149.618 726.074 133.618 708.075 126.618C690.076 119.618 536.574 135.617 375.574 169.117C214.574 202.617 86.0752 245.618 66.0752 267.118Z" fill="#D9D9D9"/>
<path d="M107.791 165.13C93.0633 178.348 116.561 174.004 116.561 174.004L609.061 54.6905C609.061 54.6905 622.482 44.6308 607.916 42.0854C593.351 39.5399 472.895 59.3173 347.388 89.2238C221.881 119.13 122.52 151.913 107.791 165.13Z" fill="#D9D9D9"/>
<path d="M160.075 74.3156C149.665 83.069 165.903 80.6054 165.903 80.6054L506.862 9.54961C506.862 9.54961 516.304 2.93642 506.355 0.865327C496.405 -1.20577 413.222 9.71293 326.344 27.4778C239.466 45.2427 170.485 65.5621 160.075 74.3156Z" fill="#D9D9D9"/>
<defs>
<filter id="filter0_d_125_8" x="166.85" y="617.299" width="814" height="400.652" filterUnits="userSpaceOnUse" color-interpolation-filters="sRGB">
<feFlood flood-opacity="0" result="BackgroundImageFix"/>
<feColorMatrix in="SourceAlpha" type="matrix" values="0 0 0 0 0 0 0 0 0 0 0 0 0 0 0 0 0 0 127 0" result="hardAlpha"/>
<feOffset dy="15"/>
<feGaussianBlur stdDeviation="21.55"/>
<feComposite in2="hardAlpha" operator="out"/>
<feColorMatrix type="matrix" values="0 0 0 0 0 0 0 0 0 0 0 0 0 0 0 0 0 0 0.25 0"/>
<feBlend mode="normal" in2="BackgroundImageFix" result="effect1_dropShadow_125_8"/>
<feBlend mode="normal" in="SourceGraphic" in2="effect1_dropShadow_125_8" result="shape"/>
</filter>
<filter id="filter1_d_125_8" x="0.00019455" y="220.3" width="932.231" height="721.4" filterUnits="userSpaceOnUse" color-interpolation-filters="sRGB">
<feFlood flood-opacity="0" result="BackgroundImageFix"/>
<feColorMatrix in="SourceAlpha" type="matrix" values="0 0 0 0 0 0 0 0 0 0 0 0 0 0 0 0 0 0 127 0" result="hardAlpha"/>
<feOffset dx="10" dy="27"/>
<feGaussianBlur stdDeviation="28.85"/>
<feComposite in2="hardAlpha" operator="out"/>
<feColorMatrix type="matrix" values="0 0 0 0 0 0 0 0 0 0 0 0 0 0 0 0 0 0 1 0"/>
<feBlend mode="normal" in2="BackgroundImageFix" result="effect1_dropShadow_125_8"/>
<feBlend mode="normal" in="SourceGraphic" in2="effect1_dropShadow_125_8" result="shape"/>
</filter>
<filter id="filter2_d_125_8" x="25.9248" y="221.708" width="822.478" height="423.835" filterUnits="userSpaceOnUse" color-interpolation-filters="sRGB">
<feFlood flood-opacity="0" result="BackgroundImageFix"/>
<feColorMatrix in="SourceAlpha" type="matrix" values="0 0 0 0 0 0 0 0 0 0 0 0 0 0 0 0 0 0 127 0" result="hardAlpha"/>
<feOffset dx="1" dy="25"/>
<feGaussianBlur stdDeviation="11"/>
<feComposite in2="hardAlpha" operator="out"/>
<feColorMatrix type="matrix" values="0 0 0 0 0 0 0 0 0 0 0 0 0 0 0 0 0 0 0.25 0"/>
<feBlend mode="normal" in2="BackgroundImageFix" result="effect1_dropShadow_125_8"/>
<feBlend mode="normal" in="SourceGraphic" in2="effect1_dropShadow_125_8" result="shape"/>
</filter>
<linearGradient id="paint0_linear_125_8" x1="455.95" y1="261" x2="642.2" y2="806.001" gradientUnits="userSpaceOnUse">
<stop stop-color="white"/>
<stop offset="1" stop-color="#8D8D8D"/>
</linearGradient>
</defs>
</svg>
